<?xml version="1.0" standalone="no"?>
<!DOCTYPE svg PUBLIC "-//W3C//DTD SVG 20010904//EN"
 "http://www.w3.org/TR/2001/REC-SVG-20010904/DTD/svg10.dtd">
<svg version="1.0" xmlns="http://www.w3.org/2000/svg"
 width="1434.000000pt" height="1444.000000pt" viewBox="0 0 1434.000000 1444.000000"
 preserveAspectRatio="xMidYMid meet">

<g transform="translate(0.000000,1444.000000) scale(0.100000,-0.100000)"
fill="#000000" stroke="none">
<path d="M0 7220 l0 -7220 7170 0 7170 0 0 7220 0 7220 -7170 0 -7170 0 0
-7220z m7500 6029 c134 -6 247 -12 250 -14 3 -1 57 -8 120 -15 63 -7 158 -21
210 -31 116 -24 216 -44 295 -59 94 -17 223 -50 300 -75 67 -21 108 -34 240
-71 33 -9 71 -22 85 -29 14 -6 54 -22 90 -35 36 -13 70 -26 75 -30 6 -4 24
-10 42 -13 18 -4 74 -26 125 -50 51 -24 125 -57 163 -72 39 -16 81 -36 95 -45
14 -9 77 -42 140 -74 146 -73 250 -130 372 -205 37 -22 72 -41 77 -41 5 0 14
-7 21 -15 7 -9 63 -49 124 -91 365 -248 660 -499 959 -819 136 -145 185 -203
301 -350 30 -38 70 -88 89 -110 19 -22 40 -51 48 -65 8 -14 32 -50 55 -80 81
-110 324 -494 324 -513 0 -3 19 -38 43 -79 24 -40 53 -98 66 -128 13 -30 43
-92 67 -137 24 -45 44 -87 44 -92 0 -6 19 -52 43 -103 24 -51 51 -118 61 -148
10 -30 24 -68 32 -83 8 -16 14 -37 14 -47 0 -10 4 -21 8 -24 13 -8 140 -411
173 -551 20 -86 27 -119 64 -320 9 -49 18 -92 20 -95 8 -12 44 -295 57 -445
17 -197 17 -822 0 -1015 -15 -170 -38 -339 -57 -430 -8 -36 -19 -92 -25 -125
-47 -245 -62 -312 -110 -473 -22 -75 -47 -162 -56 -192 -14 -50 -42 -125 -64
-175 -5 -11 -24 -65 -43 -120 -39 -115 -91 -233 -183 -420 -35 -72 -64 -133
-64 -137 0 -3 -27 -53 -60 -111 -33 -59 -60 -109 -60 -113 0 -3 -10 -19 -21
-36 -12 -16 -50 -77 -86 -135 -35 -58 -75 -119 -88 -135 -14 -16 -25 -34 -25
-40 0 -6 -24 -42 -53 -82 -29 -39 -60 -82 -69 -96 -34 -55 -211 -275 -328
-408 -278 -316 -600 -608 -947 -860 -40 -28 -75 -52 -77 -52 -3 0 -34 -21 -69
-47 -78 -58 -226 -152 -287 -183 -25 -12 -52 -28 -60 -36 -20 -17 -305 -164
-415 -214 -27 -13 -87 -40 -133 -62 -45 -21 -87 -38 -92 -38 -5 0 -33 -11 -62
-24 -101 -47 -232 -95 -343 -126 -16 -5 -61 -20 -100 -34 -68 -24 -99 -33
-215 -61 -30 -7 -91 -23 -135 -35 -44 -12 -98 -26 -120 -30 -22 -4 -67 -12
-100 -18 -161 -30 -236 -42 -267 -42 -18 0 -49 -4 -68 -10 -19 -5 -118 -19
-220 -30 -243 -28 -836 -31 -1050 -6 -427 51 -637 87 -900 157 -63 17 -133 34
-155 39 -22 5 -87 25 -145 45 -58 20 -121 41 -140 47 -74 21 -152 49 -202 72
-29 14 -95 41 -146 60 -51 20 -101 40 -110 45 -9 5 -36 19 -59 30 -23 11 -50
24 -60 29 -10 5 -58 28 -108 52 -49 24 -102 51 -117 62 -14 10 -31 18 -37 18
-7 0 -61 29 -120 65 -60 36 -111 65 -114 65 -4 0 -35 20 -70 45 -36 25 -67 45
-70 45 -3 0 -36 21 -74 47 -37 26 -95 65 -128 87 -33 21 -98 69 -145 106 -47
36 -107 83 -135 104 -149 112 -510 453 -680 641 -95 106 -249 291 -282 340
-15 22 -51 69 -78 105 -28 36 -86 119 -130 185 -43 66 -91 138 -105 160 -15
22 -38 60 -51 85 -13 25 -34 59 -45 75 -55 77 -267 504 -329 665 -10 25 -31
73 -46 108 -16 35 -29 68 -29 73 0 6 -6 25 -14 42 -7 18 -22 61 -34 97 -11 36
-32 97 -46 135 -14 39 -30 90 -36 115 -6 25 -17 70 -25 100 -74 295 -96 389
-109 473 -36 224 -46 288 -60 402 -49 371 -49 907 0 1265 47 352 86 564 135
740 12 41 27 100 34 130 8 30 19 75 25 100 6 25 19 68 29 95 11 28 25 66 31
85 7 19 19 50 26 68 8 18 14 41 14 50 0 15 51 147 80 207 5 11 21 51 35 88 23
61 104 239 157 342 64 125 133 253 148 275 10 14 32 51 49 82 41 77 233 367
293 444 26 33 62 81 80 107 28 39 77 99 181 224 110 132 485 516 562 575 17
12 78 63 136 113 148 126 442 345 462 345 5 0 27 15 50 34 23 18 76 52 117 76
41 24 82 48 90 55 41 34 492 272 550 290 14 4 68 28 120 52 52 25 120 53 150
63 66 23 156 56 265 99 44 17 86 31 93 31 8 0 35 7 61 15 25 8 91 28 146 44
96 29 137 39 305 74 41 9 107 23 145 32 95 20 287 50 420 65 138 16 608 38
695 34 36 -2 175 -9 310 -15z m-2895 -11904 c0 -26 -4 -30 -31 -33 -58 -6 -66
-26 -68 -168 -1 -84 3 -128 10 -131 11 -4 239 209 255 240 13 23 -4 53 -35 61
-28 7 -41 33 -25 52 18 22 302 20 320 -2 17 -21 0 -48 -32 -52 -44 -6 -86 -32
-155 -95 -38 -35 -82 -76 -99 -90 -26 -22 -28 -28 -17 -44 6 -10 17 -27 22
-38 6 -11 23 -39 38 -62 15 -23 60 -92 99 -155 88 -137 118 -170 171 -187 55
-19 129 0 143 36 12 33 12 575 -1 607 -7 19 -17 26 -37 26 -39 0 -55 13 -51
41 l3 24 195 3 c293 5 370 -18 423 -123 50 -100 11 -226 -82 -265 -35 -14 -47
-37 -23 -45 18 -6 38 -33 111 -156 56 -91 87 -129 124 -148 18 -9 27 -22 27
-38 0 -23 -2 -23 -99 -23 l-99 0 -28 48 c-55 92 -64 108 -90 157 -51 96 -82
133 -116 140 -18 4 -40 9 -49 11 -9 3 -24 -3 -33 -12 -14 -13 -16 -34 -13
-130 5 -124 17 -154 62 -154 27 0 49 -24 41 -45 -5 -13 -53 -15 -388 -13 -374
3 -383 3 -383 23 0 15 9 21 37 26 52 8 71 25 56 53 -23 44 -171 276 -182 285
-8 7 -22 1 -44 -20 -59 -55 -62 -65 -55 -172 3 -54 11 -104 18 -113 6 -9 27
-19 45 -23 29 -6 35 -11 35 -31 l0 -25 -180 0 c-172 0 -180 1 -180 20 0 14 12
24 44 35 25 8 47 24 52 35 4 11 8 148 8 305 1 310 -2 330 -54 330 -22 0 -55
23 -55 39 0 27 30 31 195 29 l170 -3 0 -30z m1603 23 c7 -7 12 -15 12 -19 0
-16 -33 -39 -55 -39 -15 0 -31 -10 -41 -25 -14 -21 -16 -57 -13 -277 4 -240 5
-255 26 -288 41 -66 119 -97 197 -78 56 14 119 78 136 137 14 52 13 473 -2
506 -9 19 -19 25 -44 25 -40 0 -64 31 -43 56 9 12 36 14 133 12 119 -3 121 -3
124 -27 4 -26 -12 -41 -45 -41 -43 0 -48 -29 -53 -305 -5 -249 -6 -262 -28
-300 -54 -92 -114 -126 -234 -133 -103 -5 -170 12 -231 60 -80 64 -97 139 -97
432 0 181 -2 212 -17 228 -9 10 -24 18 -34 18 -32 0 -49 12 -49 35 0 13 6 26
13 28 28 12 333 7 345 -5z m1200 0 c19 -19 16 -202 -3 -218 -22 -18 -35 -2
-55 62 -21 70 -61 98 -139 98 -32 0 -62 -5 -69 -12 -15 -15 -17 -555 -2 -610
6 -20 18 -39 28 -41 9 -3 29 -8 45 -11 21 -5 27 -12 27 -31 l0 -25 -182 2
c-172 3 -183 4 -183 22 0 20 12 28 60 42 19 6 32 18 36 34 12 41 10 589 -1
611 -8 15 -22 19 -61 19 -92 0 -140 -34 -153 -111 -7 -40 -31 -68 -46 -53 -11
11 -16 206 -6 222 10 17 687 17 704 0z m663 -4 c8 -9 15 -52 17 -105 4 -88 4
-89 -19 -89 -19 0 -29 10 -47 51 -35 76 -65 90 -182 87 l-95 -3 -3 -136 c-2
-105 0 -138 11 -142 7 -2 37 -1 66 4 56 9 80 28 81 66 0 12 9 27 20 33 30 16
40 -15 40 -134 0 -118 -4 -136 -31 -136 -20 0 -23 5 -33 51 -6 29 -43 49 -98
53 -58 5 -58 6 -58 -144 0 -113 3 -142 16 -154 23 -23 195 -23 234 1 31 18 80
98 80 131 0 31 28 56 46 41 12 -9 14 -38 12 -133 l-3 -121 -325 0 c-318 0
-325 0 -325 20 0 14 11 24 39 33 66 21 65 16 66 341 0 260 -2 297 -17 313 -9
10 -25 18 -35 18 -27 0 -58 18 -58 33 0 34 21 37 306 37 245 0 283 -2 295 -16z
m353 0 c9 -9 100 -123 203 -255 102 -132 191 -238 197 -236 8 3 11 65 10 201
-1 174 -3 199 -19 216 -10 11 -28 20 -39 20 -32 0 -48 15 -44 41 3 23 6 24
113 27 136 3 155 -1 155 -33 0 -20 -7 -25 -42 -32 -66 -13 -68 -24 -66 -401 1
-341 0 -350 -43 -334 -10 4 -42 39 -71 78 -54 72 -89 117 -143 184 -16 21 -55
70 -85 110 -167 220 -179 233 -181 193 -3 -108 1 -431 6 -453 7 -31 38 -56 76
-62 16 -2 24 -9 24 -23 0 -19 -8 -20 -132 -23 -125 -2 -133 -1 -133 16 0 23
25 46 39 38 5 -3 21 8 35 25 l26 31 0 268 c0 162 -4 280 -10 296 -12 31 -37
53 -62 54 -23 0 -31 16 -24 46 6 23 9 24 100 24 73 0 98 -4 110 -16z m995 -46
c12 -35 26 -72 31 -83 5 -11 18 -49 31 -85 35 -104 65 -190 94 -265 15 -38 30
-81 34 -95 28 -87 55 -132 92 -151 41 -20 44 -26 31 -47 -7 -9 -48 -12 -173
-10 -151 3 -164 4 -167 22 -4 21 13 36 44 36 39 0 47 23 28 82 -26 81 -22 79
-152 76 l-115 -3 -13 -45 c-23 -76 -20 -88 31 -110 41 -18 45 -22 35 -40 -10
-18 -21 -20 -130 -20 -114 0 -120 1 -120 20 0 13 13 28 34 41 39 23 54 44 80
109 19 46 102 279 137 385 11 33 24 69 29 80 5 11 14 38 21 60 25 87 37 105
67 105 27 0 31 -5 51 -62z m655 39 c9 -15 7 -21 -8 -33 -11 -8 -30 -14 -42
-14 -46 0 -49 -16 -49 -279 0 -135 4 -258 8 -273 20 -73 137 -145 193 -119 14
6 32 11 40 11 28 0 83 51 106 98 21 44 22 61 24 267 3 236 -5 287 -41 293 -61
9 -66 12 -63 40 l3 27 115 3 c86 2 120 -1 134 -11 26 -19 14 -46 -23 -53 -58
-12 -59 -16 -63 -289 -4 -233 -5 -253 -26 -300 -26 -56 -87 -125 -112 -125 -9
0 -22 -6 -28 -12 -9 -9 -49 -13 -125 -13 -105 0 -115 2 -165 29 -50 28 -90 69
-106 111 -23 58 -36 185 -36 363 0 106 -4 201 -10 211 -5 11 -26 21 -50 25
-34 5 -40 10 -40 30 0 14 6 27 13 29 6 3 86 5 176 4 146 -2 165 -4 175 -20z"/>
<path d="M6885 13195 c-82 -7 -183 -13 -224 -14 -41 -1 -92 -6 -113 -12 -22
-5 -81 -14 -131 -19 -127 -12 -244 -29 -297 -41 -25 -6 -70 -15 -100 -19 -30
-4 -68 -12 -85 -18 -36 -12 -105 -30 -160 -41 -62 -13 -136 -32 -180 -47 -23
-8 -50 -14 -61 -14 -11 0 -28 -6 -39 -13 -11 -7 -47 -21 -80 -31 -33 -10 -86
-27 -118 -37 -31 -11 -66 -19 -77 -19 -11 0 -20 -4 -20 -10 0 -5 -5 -10 -11
-10 -9 0 -45 -15 -136 -56 -17 -8 -38 -14 -46 -14 -9 0 -18 -4 -22 -9 -3 -5
-18 -12 -35 -16 -26 -6 -75 -28 -120 -54 -8 -5 -31 -16 -50 -24 -111 -48 -353
-175 -495 -259 -567 -338 -1115 -814 -1515 -1318 -29 -36 -59 -74 -69 -85 -9
-11 -32 -42 -51 -70 -19 -27 -51 -70 -70 -95 -70 -89 -237 -351 -313 -490 -22
-41 -51 -93 -63 -115 -39 -69 -184 -361 -184 -369 0 -5 -9 -27 -19 -50 -59
-126 -81 -178 -81 -195 0 -11 -4 -22 -9 -26 -5 -3 -12 -19 -16 -36 -4 -17 -13
-42 -21 -57 -8 -15 -14 -34 -14 -43 0 -9 -7 -22 -15 -29 -8 -7 -15 -24 -15
-39 -1 -14 -7 -37 -15 -51 -8 -14 -14 -35 -15 -47 0 -12 -6 -37 -14 -55 -7
-18 -19 -53 -26 -78 -6 -25 -18 -67 -26 -95 -30 -98 -84 -340 -84 -373 0 -12
-9 -48 -20 -79 -11 -32 -20 -74 -20 -95 0 -20 -5 -49 -10 -64 -6 -14 -15 -74
-20 -133 -6 -58 -15 -149 -21 -201 -16 -130 -16 -933 0 -1070 6 -58 16 -148
20 -200 5 -52 14 -108 20 -123 6 -16 11 -42 11 -59 0 -17 8 -67 19 -112 10
-44 26 -117 35 -161 9 -44 21 -100 28 -125 6 -25 13 -58 15 -75 3 -16 11 -44
19 -62 8 -17 14 -42 14 -55 0 -13 4 -28 10 -34 5 -5 14 -30 19 -54 6 -25 17
-70 27 -100 9 -30 22 -74 28 -97 7 -24 17 -48 24 -55 7 -7 12 -20 12 -31 0
-10 5 -28 12 -40 13 -24 66 -168 75 -204 3 -12 11 -28 19 -34 8 -6 14 -18 14
-26 0 -8 7 -27 15 -41 24 -44 55 -120 55 -134 0 -8 4 -18 9 -24 5 -5 46 -81
91 -169 46 -88 87 -165 92 -172 5 -6 22 -35 37 -65 63 -120 248 -401 385 -584
91 -121 124 -163 161 -205 22 -26 65 -75 94 -110 56 -65 397 -408 506 -509 33
-31 84 -73 113 -95 28 -21 52 -42 52 -45 0 -4 21 -22 48 -40 26 -19 76 -57
112 -86 90 -71 316 -228 430 -298 200 -123 636 -356 667 -356 9 0 121 -51 157
-71 10 -6 53 -22 95 -35 42 -14 80 -29 86 -35 5 -5 18 -9 30 -9 12 0 30 -7 41
-15 10 -8 25 -15 32 -15 8 0 28 -6 45 -14 18 -8 50 -19 72 -24 22 -6 65 -18
95 -27 30 -9 71 -20 90 -25 19 -5 60 -18 90 -29 55 -20 156 -43 285 -66 39 -7
86 -18 105 -24 19 -6 48 -11 65 -11 16 0 48 -7 70 -15 22 -8 63 -14 92 -15 28
0 64 -5 80 -11 15 -6 82 -14 148 -19 66 -5 185 -14 265 -20 257 -21 791 -5
1055 32 44 6 103 13 130 15 28 2 73 10 100 18 28 7 79 19 115 25 111 20 202
38 275 55 39 9 88 20 110 25 22 5 54 16 70 24 17 9 37 16 46 16 8 0 35 6 60
14 24 7 71 22 104 31 33 10 74 24 92 32 17 7 38 13 46 13 8 0 20 6 26 14 6 8
26 16 44 19 18 2 57 15 87 27 30 12 67 24 82 27 15 3 33 11 39 19 6 8 19 14
28 14 9 0 26 6 37 14 11 8 41 22 65 31 88 34 350 163 414 204 22 15 60 35 85
46 25 11 65 34 90 51 25 17 60 40 79 50 58 33 214 136 336 223 39 28 81 59 95
68 52 37 276 218 295 240 11 12 38 36 60 53 89 70 287 264 417 408 239 266
387 457 561 722 31 47 63 92 71 101 9 9 16 19 16 24 0 4 28 56 62 114 104 177
179 321 249 481 11 25 25 52 30 60 5 8 14 26 19 40 6 14 14 33 20 42 5 10 19
46 31 80 12 35 27 72 33 83 13 25 27 61 55 145 12 36 26 79 32 95 6 17 14 44
19 60 5 17 14 46 21 65 6 19 17 51 24 70 19 55 61 217 75 292 5 26 13 55 18
65 5 10 13 43 17 73 4 30 11 61 16 70 12 23 47 270 74 515 8 77 19 174 24 215
17 121 13 667 -4 790 -9 58 -20 150 -25 205 -16 169 -57 460 -67 485 -4 8 -12
42 -19 75 -7 33 -18 80 -24 105 -7 25 -18 68 -25 95 -7 28 -18 70 -25 95 -6
25 -14 61 -17 80 -3 19 -9 40 -13 45 -4 6 -10 24 -14 40 -4 17 -13 44 -21 60
-7 17 -28 77 -45 135 -18 58 -36 112 -41 120 -5 8 -12 22 -15 30 -3 8 -12 28
-20 43 -7 16 -14 34 -14 40 0 7 -6 24 -14 38 -7 14 -16 37 -19 51 -7 25 -102
232 -156 338 -15 30 -42 84 -60 120 -18 36 -37 72 -42 80 -128 224 -258 427
-362 568 -18 24 -48 65 -67 92 -82 113 -270 341 -346 420 -92 95 -289 292
-360 360 -123 116 -408 345 -554 445 -36 25 -83 58 -105 75 -22 16 -47 33 -55
37 -8 4 -51 30 -95 58 -114 74 -299 182 -327 191 -13 4 -41 19 -63 33 -41 26
-170 91 -182 91 -4 0 -48 20 -97 45 -86 42 -191 85 -262 106 -18 5 -37 16 -44
24 -7 8 -23 15 -36 15 -12 0 -25 4 -29 9 -3 5 -20 12 -38 16 -48 10 -129 36
-159 51 -14 8 -35 14 -46 14 -11 0 -33 6 -49 14 -41 20 -127 46 -152 46 -12 0
-32 5 -43 11 -11 6 -44 15 -72 19 -28 4 -64 12 -81 18 -52 18 -118 33 -182 42
-35 5 -72 14 -82 20 -11 5 -38 10 -59 10 -22 0 -76 7 -119 15 -43 8 -100 15
-128 15 -27 1 -79 7 -115 15 -36 8 -96 15 -135 15 -38 0 -142 7 -230 15 -186
17 -293 17 -500 0z m211 -370 c168 -56 239 -127 290 -293 57 -185 11 -406
-115 -545 -73 -81 -171 -141 -276 -170 -99 -26 -580 -66 -626 -52 -28 9 -23
27 12 50 l31 20 -7 165 c-11 256 -13 292 -31 500 -10 119 -22 200 -29 209 -7
7 -37 21 -66 31 -30 9 -53 21 -53 26 3 24 62 36 202 40 81 3 197 12 257 20 61
8 126 16 145 18 66 8 217 -3 266 -19z m719 -15 c28 -5 57 -11 66 -15 9 -3 47
-10 85 -14 88 -11 189 -28 282 -46 40 -8 86 -15 103 -15 17 0 53 -10 80 -21
38 -17 48 -26 43 -38 -3 -9 -16 -51 -28 -93 -25 -89 -37 -108 -61 -88 -10 8
-15 30 -15 65 0 66 -12 77 -110 98 -154 33 -202 38 -221 21 -16 -15 -19 -25
-38 -124 -5 -25 -16 -78 -25 -119 -22 -98 -12 -117 71 -126 32 -3 84 -11 116
-17 51 -10 60 -9 77 7 11 10 20 24 20 30 0 20 41 66 52 59 12 -8 4 -97 -20
-229 -17 -86 -19 -90 -45 -93 -26 -3 -27 -2 -27 51 0 64 -17 85 -76 93 -22 3
-56 12 -77 20 -20 8 -55 14 -77 14 -49 0 -52 -6 -75 -140 -9 -52 -20 -117 -25
-145 -20 -101 -19 -106 24 -121 22 -8 100 -22 174 -31 160 -21 176 -16 201 59
19 56 34 73 56 64 13 -5 16 -14 12 -39 -11 -70 -47 -191 -59 -198 -17 -11 -54
-11 -103 2 -22 5 -80 17 -130 25 -214 37 -242 42 -274 53 -19 6 -38 8 -42 5
-9 -5 -126 21 -169 38 l-25 10 23 17 c76 54 68 35 123 271 6 25 17 83 25 130
9 47 22 123 30 170 9 47 18 99 20 115 3 17 12 65 20 107 17 98 10 120 -45 136
-46 14 -55 24 -46 53 6 17 12 19 33 14 15 -4 50 -10 77 -15z m1245 -296 c41
-18 86 -40 100 -47 l25 -13 -3 -244 c-2 -135 -5 -311 -7 -392 -5 -150 -2 -178
19 -178 18 0 276 190 327 241 10 10 30 26 46 36 15 10 83 62 150 116 l121 98
39 -22 c57 -33 102 -55 170 -85 34 -14 70 -35 79 -45 16 -18 16 -21 1 -36 -13
-14 -21 -15 -42 -5 -37 17 -80 15 -97 -5 -9 -10 -39 -63 -67 -118 -29 -55 -56
-107 -61 -115 -17 -28 -195 -394 -223 -458 -31 -72 -25 -106 20 -123 35 -13
44 -28 31 -52 -7 -14 -16 -17 -36 -12 -15 4 -34 12 -42 18 -8 7 -33 21 -55 31
-22 10 -47 22 -55 27 -8 4 -51 25 -95 46 -142 68 -140 67 -137 88 6 33 17 37
57 21 60 -25 72 -21 108 37 57 91 289 565 285 583 -3 15 -9 13 -39 -14 -20
-18 -39 -32 -43 -32 -3 0 -42 -28 -86 -62 -45 -35 -93 -72 -108 -83 -75 -56
-411 -326 -417 -335 -3 -5 -19 -10 -34 -10 -23 0 -30 5 -33 25 -3 14 -1 148 4
298 12 373 8 572 -12 572 -24 0 -300 -561 -300 -609 0 -19 11 -33 40 -52 40
-27 53 -60 26 -70 -7 -3 -49 13 -92 34 -44 22 -109 54 -146 71 -76 36 -87 47
-66 67 12 12 24 13 61 5 25 -6 52 -8 60 -5 22 8 97 140 220 384 189 377 198
408 126 446 -32 16 -37 35 -13 58 14 14 20 13 67 -15 29 -17 86 -46 127 -65z
m-3586 -6 c23 -24 93 -99 156 -168 62 -69 137 -150 166 -180 29 -30 97 -102
151 -159 219 -233 194 -212 252 -210 58 2 60 2 63 -30 3 -24 2 -24 -132 -65
-63 -20 -160 -57 -175 -67 -16 -11 -98 -39 -117 -39 -43 0 -23 55 28 76 23 10
34 21 34 35 0 11 -32 58 -71 105 -71 84 -99 100 -126 73 -6 -6 -26 -14 -44
-19 -62 -16 -228 -77 -254 -94 -24 -16 -25 -21 -25 -104 0 -120 10 -136 85
-142 46 -4 61 -9 63 -22 4 -19 -5 -23 -98 -53 -53 -17 -126 -46 -162 -66 -27
-14 -46 -11 -58 11 -11 21 1 39 49 70 21 14 24 26 31 135 5 66 14 264 20 440
6 176 14 358 18 405 l7 85 35 12 c53 18 57 16 104 -29z m-816 -395 c12 -27 36
-74 54 -105 31 -54 32 -58 16 -75 -17 -16 -20 -15 -67 36 l-50 54 -79 -5 c-81
-6 -151 -35 -224 -92 -32 -26 -100 -111 -122 -155 -26 -50 -24 -204 4 -267 72
-166 153 -254 293 -319 69 -32 84 -35 165 -35 78 0 99 4 154 28 112 51 234
161 287 261 10 18 15 20 27 10 19 -16 18 -93 -1 -109 -8 -7 -15 -19 -15 -26 0
-24 -142 -165 -213 -211 -142 -93 -270 -131 -401 -120 -131 12 -199 43 -314
144 -72 64 -115 129 -166 257 -21 51 -22 232 -2 278 8 18 22 51 32 73 57 131
190 258 363 346 109 54 168 77 207 78 28 1 34 -4 52 -46z m5803 -435 c39 -35
115 -98 168 -141 53 -43 98 -82 100 -88 1 -6 -5 -19 -14 -29 -16 -18 -18 -18
-60 12 -33 24 -46 28 -61 20 -21 -11 -115 -108 -154 -158 -14 -17 -95 -114
-180 -215 -181 -214 -230 -277 -230 -295 0 -7 14 -29 31 -48 32 -37 35 -69 6
-74 -15 -3 -45 20 -196 154 -25 22 -70 57 -98 78 -52 37 -62 57 -43 86 8 13
17 11 61 -13 l52 -29 44 44 c25 24 109 117 187 208 246 287 336 399 336 422 0
10 -13 33 -30 51 -39 45 -39 72 2 76 4 1 40 -27 79 -61z m-2939 -243 c93 -7
172 -16 177 -19 4 -3 46 -12 92 -20 316 -55 452 -93 754 -208 142 -55 472
-215 575 -280 185 -117 382 -257 496 -353 150 -127 349 -323 443 -436 223
-271 379 -499 488 -714 20 -38 41 -77 48 -85 6 -8 29 -55 50 -105 20 -49 50
-117 65 -150 15 -33 38 -89 50 -125 12 -36 25 -74 30 -85 64 -170 116 -387
175 -730 52 -299 44 -843 -17 -1155 -5 -30 -14 -77 -19 -105 -7 -44 -35 -176
-58 -275 -19 -80 -126 -384 -178 -505 -57 -132 -185 -388 -208 -415 -7 -8 -27
-42 -45 -74 -35 -63 -136 -217 -185 -280 -139 -178 -214 -268 -311 -371 -114
-120 -311 -305 -371 -347 -18 -13 -59 -44 -92 -70 -33 -27 -64 -48 -69 -48 -5
0 -15 -7 -22 -15 -16 -20 -221 -155 -319 -212 -92 -52 -426 -218 -461 -228
-14 -4 -74 -26 -135 -50 -108 -41 -159 -58 -280 -91 -33 -9 -71 -20 -85 -25
-116 -40 -437 -92 -675 -109 -391 -28 -894 10 -1185 90 -41 11 -115 31 -165
44 -96 25 -273 84 -290 96 -5 4 -37 17 -70 28 -140 48 -430 190 -591 290 -108
68 -346 236 -383 272 -9 9 -35 29 -59 45 -24 16 -49 36 -55 45 -7 8 -25 25
-40 37 -93 71 -383 375 -477 499 -68 89 -200 273 -200 278 0 3 -15 26 -32 51
-18 26 -52 79 -75 118 -48 81 -233 451 -233 466 0 5 -16 47 -36 93 -42 97 -69
178 -113 343 -18 66 -37 131 -43 145 -22 54 -63 308 -78 485 -6 66 -15 144
-20 174 -13 71 -13 399 0 493 6 40 14 120 20 178 15 173 51 376 93 530 66 240
86 301 137 425 4 11 16 43 25 70 10 28 47 111 82 185 35 74 69 146 76 160 6
14 21 39 32 55 12 17 35 55 51 85 101 191 339 513 516 697 275 286 481 455
782 640 56 35 115 71 131 81 17 11 74 42 127 70 53 28 105 55 115 61 10 5 54
24 98 42 44 18 85 36 90 40 29 21 454 162 540 179 28 6 86 17 130 26 44 9 100
20 125 24 25 5 77 16 115 24 39 8 151 19 250 26 99 6 187 13 195 15 27 7 330
-5 502 -20z m3503 -280 c33 -38 72 -84 85 -101 14 -17 66 -77 115 -134 126
-144 185 -220 185 -239 0 -9 -19 -27 -43 -40 -23 -13 -58 -37 -79 -53 -63 -49
-99 -10 -43 47 38 37 40 42 26 78 -19 49 -175 237 -197 237 -11 0 -119 -79
-212 -155 -41 -33 -62 -57 -62 -72 0 -30 146 -203 172 -203 11 0 36 10 55 21
30 19 36 20 49 7 21 -20 11 -36 -53 -88 -31 -25 -80 -67 -109 -94 -45 -41 -56
-47 -69 -36 -23 19 -18 41 16 76 41 42 37 57 -47 162 -83 103 -101 109 -157
55 -23 -22 -69 -61 -102 -88 -93 -73 -135 -114 -135 -128 0 -29 146 -203 214
-255 32 -24 59 -22 111 10 33 20 53 22 74 9 21 -13 3 -34 -79 -93 -100 -72
-97 -70 -118 -59 -11 6 -71 75 -135 153 -64 79 -142 175 -173 213 -31 39 -81
96 -111 127 -30 32 -51 62 -48 68 3 5 30 10 59 10 47 0 61 5 114 43 78 55 152
113 232 182 36 30 121 103 190 161 189 160 190 161 150 239 -19 37 -19 41 -4
52 19 14 20 13 129 -112z m-7715 -140 c47 -15 144 -46 215 -69 72 -24 157 -51
190 -60 33 -10 130 -40 215 -66 280 -89 284 -89 341 -48 20 14 49 4 49 -17 0
-8 -26 -44 -57 -78 -32 -35 -96 -109 -142 -165 -46 -56 -85 -102 -86 -102 -13
0 -35 14 -35 22 0 6 10 30 22 54 17 36 19 46 8 59 -7 8 -18 15 -24 15 -6 1
-29 9 -51 20 -22 11 -46 19 -53 20 -7 0 -24 7 -38 17 -39 25 -62 10 -171 -116
-149 -172 -139 -155 -117 -204 10 -23 26 -53 35 -67 9 -14 24 -37 33 -52 25
-42 61 -46 96 -13 32 31 65 30 65 -2 0 -27 -183 -242 -207 -243 -27 0 -30 16
-12 68 17 48 17 50 -6 108 -13 32 -28 65 -33 72 -6 7 -38 68 -72 135 -83 167
-259 506 -307 594 l-39 72 37 41 c20 22 42 39 48 36 6 -2 49 -17 96 -31z m214
-5590 c60 -83 82 -111 182 -235 169 -208 239 -328 256 -438 23 -142 -16 -248
-131 -362 -79 -78 -147 -119 -268 -159 -155 -52 -355 -6 -505 115 -60 48 -92
85 -172 193 -97 130 -188 250 -205 268 -12 12 -21 32 -21 43 0 19 4 20 49 14
49 -6 51 -5 138 57 97 70 455 339 463 348 3 3 28 24 55 45 28 22 56 46 63 55
17 21 15 58 -5 92 -16 27 -16 29 2 49 22 24 16 29 99 -85z m7371 -107 c40 -35
74 -71 74 -81 1 -28 -29 -32 -70 -9 -21 12 -44 22 -51 22 -33 0 -208 -216
-208 -255 0 -28 31 -55 220 -195 l55 -40 38 41 c45 49 127 169 127 186 0 7
-13 25 -30 40 -62 55 -24 95 43 44 23 -17 74 -54 114 -82 78 -55 88 -68 69
-94 -12 -17 -15 -17 -42 3 -53 39 -74 34 -133 -33 -65 -74 -101 -128 -101
-154 0 -19 60 -66 265 -209 21 -15 41 -22 53 -18 24 8 153 176 183 240 26 53
22 78 -26 130 -39 44 -42 57 -20 76 16 13 18 12 84 -50 9 -8 33 -26 54 -40 42
-28 55 -60 38 -93 -19 -38 -104 -151 -123 -165 -10 -7 -18 -18 -18 -24 0 -5
-28 -47 -63 -92 -35 -44 -94 -125 -132 -178 -53 -75 -75 -98 -92 -98 -21 0
-23 5 -23 45 0 30 -6 51 -18 63 -55 55 -269 219 -428 328 -25 18 -55 41 -67
52 -47 43 -161 112 -186 112 -16 0 -37 -12 -54 -30 -33 -34 -52 -38 -66 -12
-8 14 0 31 37 79 26 34 72 96 102 139 30 42 84 116 120 166 36 49 83 114 105
145 44 61 81 103 90 103 4 0 40 -28 80 -62z m-6678 -760 c17 -13 98 -77 179
-143 82 -66 167 -133 189 -150 53 -38 157 -126 172 -145 7 -8 12 -22 13 -30 0
-18 -127 -150 -145 -150 -26 0 -25 44 1 82 17 24 24 44 19 57 -7 22 -159 164
-206 193 -16 10 -36 18 -43 18 -15 0 -83 -72 -177 -186 -71 -87 -71 -88 24
-164 85 -69 81 -66 105 -79 24 -13 34 -9 69 21 22 20 64 21 70 2 4 -12 -17
-42 -112 -158 -38 -47 -75 -86 -81 -86 -6 0 -17 7 -24 15 -10 12 -8 21 9 48
34 55 28 78 -36 137 -79 72 -128 103 -150 96 -11 -3 -51 -45 -89 -93 -38 -48
-88 -111 -111 -140 -24 -29 -43 -56 -43 -61 0 -21 216 -200 269 -222 33 -13
34 -13 127 55 24 18 54 10 54 -14 0 -9 -34 -52 -76 -95 l-75 -79 -35 17 c-20
9 -54 34 -77 55 -23 22 -69 61 -102 87 -33 27 -100 83 -150 124 -49 42 -118
97 -152 123 -34 26 -65 52 -69 58 -10 17 16 29 62 29 39 0 45 4 137 108 92
103 165 190 265 316 26 33 65 80 86 105 53 62 96 131 96 154 0 10 -13 31 -30
45 -31 28 -39 57 -17 65 20 8 21 8 54 -15z m6054 2 c49 -14 107 -61 139 -113
22 -37 25 -53 25 -132 0 -67 -5 -101 -19 -133 -22 -48 -14 -66 32 -75 60 -12
119 -28 149 -42 17 -8 42 -15 55 -15 13 0 28 -4 34 -9 17 -15 229 -52 285 -49
49 3 54 1 57 -18 2 -16 -10 -32 -45 -60 -26 -21 -68 -57 -92 -81 -25 -24 -54
-43 -65 -43 -12 0 -88 23 -171 51 -82 29 -166 55 -185 60 -106 24 -227 61
-239 74 -12 12 -10 18 16 42 49 47 63 78 63 138 0 69 -23 117 -83 172 -72 67
-149 69 -240 6 -21 -15 -47 -39 -58 -54 l-20 -28 25 -38 c13 -21 37 -51 51
-68 15 -16 44 -50 64 -75 20 -25 38 -47 41 -50 9 -8 291 -328 323 -367 25 -28
74 -63 91 -63 3 0 17 11 32 25 30 28 43 30 68 12 23 -17 12 -41 -34 -75 -50
-36 -151 -122 -223 -188 -31 -30 -66 -54 -77 -54 -34 0 -35 28 -1 70 17 21 31
44 31 50 0 14 -42 78 -72 110 -13 14 -41 47 -63 75 -22 27 -47 57 -55 66 -8 9
-46 54 -85 99 -38 45 -117 133 -173 196 -114 126 -122 130 -194 93 -27 -14
-44 -17 -50 -11 -20 20 3 58 59 99 32 23 123 101 203 175 241 222 301 256 401
228z m-750 -540 c10 -6 19 -20 19 -32 0 -11 12 -45 26 -74 26 -54 29 -84 7
-91 -11 -4 -28 11 -77 68 -12 14 -23 17 -48 12 -31 -6 -52 -15 -168 -73 -65
-33 -100 -61 -100 -82 0 -10 21 -60 47 -110 25 -51 57 -117 71 -145 18 -38 32
-53 46 -53 20 0 77 26 131 60 17 11 45 26 63 34 42 20 49 40 30 93 -15 42 -15
44 4 54 11 6 22 8 25 6 13 -14 143 -251 143 -262 0 -7 -6 -17 -13 -23 -10 -9
-22 -2 -50 28 -24 26 -45 40 -61 40 -22 0 -108 -37 -198 -86 -38 -20 -36 -48
8 -126 20 -34 56 -102 81 -151 32 -62 51 -89 67 -93 16 -4 53 10 117 43 181
94 222 131 200 179 -6 14 -11 36 -11 49 0 13 -5 27 -10 30 -16 10 8 35 32 35
12 0 24 -12 33 -32 7 -18 24 -55 36 -83 13 -27 26 -58 31 -67 13 -31 -31 -64
-212 -156 -96 -49 -217 -112 -268 -140 -50 -29 -97 -52 -102 -52 -6 0 -10 -3
-10 -8 0 -4 -9 -13 -19 -19 -14 -9 -23 -9 -35 0 -15 11 -16 16 -2 49 10 24 13
45 7 64 -14 47 -168 346 -314 608 -79 142 -95 155 -153 131 -37 -15 -59 -12
-68 10 -6 15 63 60 192 126 42 22 91 48 107 59 17 10 50 29 75 41 25 13 82 45
128 72 131 77 157 86 193 67z m-4291 -186 c70 -33 132 -60 170 -74 19 -7 49
-18 65 -25 17 -7 49 -21 72 -30 47 -20 57 -35 39 -60 -11 -15 -17 -15 -53 -5
-23 7 -48 10 -56 7 -9 -3 -34 -45 -57 -94 -23 -48 -49 -100 -56 -115 -8 -14
-14 -31 -14 -37 0 -6 -14 -42 -31 -79 -43 -92 -54 -118 -80 -187 -13 -33 -27
-64 -31 -69 -4 -6 -8 -16 -8 -23 0 -7 -16 -46 -35 -87 -52 -111 -55 -103 80
-160 50 -21 104 -44 120 -52 29 -14 120 -23 127 -14 67 90 85 110 99 110 33 0
28 -32 -19 -122 -63 -120 -69 -123 -156 -93 -38 14 -74 28 -80 33 -6 5 -47 23
-91 42 -44 18 -109 46 -145 62 -104 48 -121 54 -202 83 -94 33 -104 56 -32 74
45 12 45 12 93 114 27 56 61 131 76 167 15 36 38 88 50 115 40 86 137 328 147
367 15 53 4 80 -39 103 -28 15 -37 26 -35 40 4 19 22 37 32 32 3 -1 25 -12 50
-23z m3548 -201 c3 -17 -6 -27 -36 -42 -22 -11 -42 -27 -45 -34 -6 -15 8 -86
23 -122 5 -11 21 -60 35 -110 15 -49 38 -119 51 -155 12 -36 44 -128 70 -205
56 -170 83 -234 98 -237 6 -1 36 -2 66 -2 51 -1 55 -3 55 -24 0 -25 -22 -37
-130 -67 -93 -26 -208 -65 -219 -74 -6 -4 -27 -11 -47 -15 -29 -5 -38 -3 -43
10 -12 31 -5 42 31 51 50 12 62 47 40 117 -94 297 -121 383 -128 396 -5 8 -29
79 -55 157 -25 77 -55 156 -65 173 -20 32 -20 32 -79 25 -56 -7 -60 -6 -60 14
0 12 -1 24 -2 27 -3 6 41 23 152 58 49 15 127 44 185 67 40 16 51 18 75 16 17
-1 26 -9 28 -24z m-2263 -217 c8 -13 22 -52 29 -87 7 -35 19 -84 25 -109 22
-82 40 -154 56 -225 8 -38 22 -95 29 -125 8 -30 22 -86 31 -125 10 -38 23 -92
31 -120 7 -27 23 -90 36 -139 22 -88 22 -88 65 -107 43 -18 51 -31 34 -58 -6
-9 -19 -12 -42 -7 -19 4 -56 11 -84 16 -27 5 -66 14 -85 19 -19 6 -57 11 -85
12 -27 0 -72 6 -100 13 -44 10 -50 14 -50 36 0 23 3 25 48 25 76 0 77 6 37
198 -12 61 -16 67 -42 67 -12 0 -55 6 -97 14 -170 32 -249 40 -265 26 -9 -7
-34 -51 -57 -97 -47 -99 -47 -133 0 -133 15 0 36 -9 46 -20 16 -18 17 -22 4
-35 -12 -12 -28 -11 -114 5 -55 11 -126 22 -157 25 -48 5 -58 10 -58 25 0 23
28 40 67 40 40 0 63 28 171 200 50 80 107 172 129 204 21 33 48 78 59 101 12
23 34 61 50 85 53 80 137 215 152 245 25 50 33 55 78 55 35 0 47 -5 59 -24z
m1623 0 c40 -21 88 -93 97 -146 13 -79 -36 -167 -138 -243 -20 -15 -37 -32
-37 -37 0 -6 18 -10 40 -10 49 0 141 -31 168 -57 11 -10 32 -42 47 -70 24 -48
27 -61 24 -136 -4 -74 -8 -89 -39 -141 -37 -63 -127 -137 -197 -164 -43 -15
-184 -38 -318 -51 -49 -5 -103 -14 -120 -20 -34 -14 -75 -7 -75 13 0 7 9 21
21 32 19 17 21 26 16 109 -3 50 -12 137 -21 195 -26 184 -47 314 -56 350 -4
19 -11 60 -15 91 -8 71 -32 151 -48 161 -6 4 -31 8 -53 8 -44 0 -75 23 -57 41
14 14 119 38 168 39 38 0 115 12 275 44 102 20 273 16 318 -8z"/>
<path d="M6608 12743 c-10 -2 -21 -16 -24 -29 -7 -29 -1 -197 15 -399 6 -77
16 -203 22 -280 6 -76 15 -147 20 -157 8 -15 23 -18 101 -18 88 0 133 10 233
49 55 22 85 47 126 106 49 71 57 94 73 201 13 81 13 107 0 189 -19 130 -51
197 -126 268 -34 31 -69 57 -79 57 -10 0 -21 5 -24 10 -6 10 -301 13 -337 3z"/>
<path d="M5412 12237 c-5 -7 -13 -91 -17 -188 -7 -188 -4 -201 38 -182 28 13
116 46 185 70 32 11 52 23 52 33 0 8 -31 48 -69 89 -39 41 -89 98 -113 127
-48 59 -62 68 -76 51z"/>
<path d="M6930 11386 c-3 -3 -84 -12 -180 -21 -226 -21 -443 -56 -492 -81 -15
-8 -39 -14 -53 -14 -14 0 -33 -4 -43 -10 -9 -5 -37 -14 -62 -19 -73 -16 -133
-33 -165 -46 -16 -7 -50 -21 -75 -30 -25 -9 -60 -23 -78 -31 -18 -8 -38 -14
-44 -14 -7 0 -30 -9 -52 -19 -23 -11 -71 -33 -108 -50 -163 -74 -204 -95 -242
-119 -23 -15 -58 -34 -79 -44 -21 -10 -53 -28 -70 -40 -35 -26 -48 -34 -96
-63 -18 -11 -47 -30 -65 -42 -17 -12 -56 -39 -86 -59 -67 -47 -146 -109 -309
-248 -89 -74 -258 -244 -347 -346 -138 -161 -178 -215 -374 -510 -31 -47 -89
-146 -130 -225 -25 -49 -51 -99 -57 -110 -6 -11 -19 -38 -28 -60 -10 -22 -24
-53 -31 -68 -8 -16 -14 -33 -14 -38 0 -5 -13 -37 -29 -71 -16 -35 -39 -94 -51
-133 -12 -38 -26 -79 -30 -90 -5 -11 -16 -45 -25 -75 -10 -30 -23 -73 -30 -95
-15 -47 -41 -162 -50 -220 -4 -22 -13 -62 -22 -88 -8 -26 -12 -54 -9 -62 3 -8
-4 -46 -15 -84 -10 -39 -19 -94 -19 -123 0 -29 -7 -100 -15 -158 -19 -137 -19
-402 0 -560 8 -69 15 -148 15 -176 0 -28 7 -74 15 -102 9 -29 20 -80 25 -114
5 -35 16 -99 25 -143 9 -44 20 -98 24 -120 7 -37 26 -99 56 -185 7 -19 27 -80
45 -135 17 -55 35 -109 40 -120 5 -11 25 -55 44 -98 20 -42 36 -81 36 -85 0
-11 122 -250 166 -327 106 -182 201 -324 276 -414 26 -31 48 -59 48 -63 0 -8
48 -63 196 -222 132 -142 335 -331 454 -422 113 -86 328 -233 343 -234 4 0 38
-19 75 -42 37 -24 76 -49 87 -55 11 -7 36 -20 56 -29 20 -8 52 -24 70 -35 49
-28 146 -72 219 -99 19 -7 40 -17 45 -21 16 -11 135 -55 200 -73 33 -10 94
-30 135 -45 41 -16 107 -35 145 -44 39 -8 93 -20 122 -27 29 -6 76 -15 105
-20 140 -22 200 -32 283 -48 74 -13 156 -16 450 -15 244 0 373 4 400 12 22 6
80 16 130 22 49 5 103 14 120 19 16 5 73 16 125 25 114 19 293 66 365 95 11 5
47 16 80 26 58 16 121 41 177 70 14 8 32 14 39 14 28 0 363 167 494 247 268
164 529 367 735 573 134 133 299 328 395 465 17 24 40 56 53 71 28 34 120 181
160 256 16 29 51 94 79 143 27 50 55 106 63 125 7 19 28 64 46 100 18 36 42
96 55 133 12 37 26 70 30 73 5 3 9 14 9 26 0 11 6 32 14 46 21 38 49 129 80
257 15 61 33 133 41 160 7 28 17 73 21 100 4 28 11 61 17 75 5 14 13 66 18
115 5 50 13 122 18 160 13 93 13 627 1 735 -6 47 -14 128 -19 182 -5 53 -12
101 -15 106 -4 6 -13 44 -20 84 -18 89 -40 185 -60 258 -8 30 -22 80 -30 110
-14 54 -23 77 -66 190 -12 30 -24 64 -27 75 -6 24 -9 33 -64 155 -81 183 -112
243 -203 400 -67 115 -104 174 -149 235 -24 33 -61 84 -82 114 -20 30 -47 64
-59 75 -12 12 -33 39 -48 61 -15 22 -48 63 -73 90 -26 28 -75 79 -109 115 -91
97 -333 321 -369 343 -18 10 -39 27 -47 36 -23 27 -156 123 -250 181 -47 29
-94 60 -105 70 -11 9 -27 20 -35 23 -8 4 -51 27 -95 52 -127 71 -427 215 -449
215 -13 0 -58 16 -121 44 -52 23 -183 65 -285 91 -36 9 -87 22 -115 30 -139
38 -266 59 -480 81 -154 16 -605 31 -615 20z m408 -590 c21 -13 65 -38 97 -55
33 -17 67 -35 75 -41 37 -23 281 -160 340 -189 36 -19 71 -38 78 -44 7 -5 26
-17 42 -26 112 -61 137 -75 150 -86 8 -8 27 -16 42 -20 14 -4 34 -15 44 -26 9
-10 24 -19 32 -19 8 0 30 -11 48 -25 18 -14 39 -25 47 -25 8 0 20 -7 28 -16
13 -16 101 -64 118 -64 12 0 139 -77 167 -102 11 -10 25 -18 32 -18 11 0 75
-33 97 -50 6 -4 51 -29 100 -55 50 -26 101 -55 115 -65 42 -29 171 -100 182
-100 6 0 25 -11 42 -23 17 -13 54 -35 81 -49 66 -33 96 -50 113 -65 7 -7 50
-30 95 -52 46 -21 96 -50 112 -63 17 -14 41 -28 55 -32 14 -3 34 -13 44 -21
19 -14 19 -15 1 -35 -10 -11 -24 -20 -32 -20 -7 0 -21 -9 -30 -20 -10 -11 -25
-20 -34 -20 -9 0 -22 -7 -29 -15 -7 -8 -18 -15 -24 -15 -14 0 -98 -39 -106
-49 -5 -7 -125 -69 -352 -182 -62 -31 -114 -61 -116 -68 -2 -6 -10 -11 -17
-11 -8 0 -35 -11 -61 -25 -72 -38 -74 -37 -74 58 0 60 -4 89 -16 106 -17 23
-132 81 -163 81 -9 0 -22 9 -29 20 -7 11 -19 20 -27 20 -8 0 -23 4 -33 9 -40
22 -86 41 -98 41 -8 0 -47 16 -88 35 -41 19 -81 35 -88 35 -7 0 -22 7 -32 15
-11 8 -32 15 -47 15 -15 0 -30 4 -33 9 -3 5 -30 12 -61 16 -30 3 -57 10 -60
15 -3 5 -26 12 -52 16 -25 4 -58 13 -72 20 -14 8 -37 14 -51 14 -14 1 -36 7
-50 15 -14 8 -43 14 -66 15 -23 0 -54 5 -70 10 -121 42 -803 42 -928 0 -16 -6
-45 -10 -65 -10 -20 0 -49 -7 -66 -16 -16 -8 -48 -15 -70 -16 -22 0 -48 -7
-57 -15 -9 -8 -36 -17 -60 -20 -24 -3 -47 -9 -53 -13 -5 -4 -28 -11 -50 -14
-22 -4 -53 -11 -70 -16 -122 -38 -166 -54 -176 -66 -6 -8 -22 -14 -34 -14 -13
0 -36 -7 -51 -15 -16 -8 -38 -15 -49 -15 -12 0 -25 -4 -30 -9 -6 -5 -27 -14
-47 -20 -20 -7 -53 -23 -73 -37 -20 -13 -42 -24 -49 -24 -8 0 -39 -12 -70 -26
l-56 -25 0 -110 0 -109 -27 0 c-14 0 -34 6 -42 13 -9 8 -32 20 -51 27 -19 8
-44 23 -55 33 -11 10 -58 37 -105 60 -47 23 -98 51 -115 63 -39 29 -97 44
-118 32 -15 -8 -17 -33 -17 -198 0 -207 3 -220 59 -220 48 0 52 -15 49 -176
l-3 -149 -54 53 c-36 34 -62 52 -79 52 -29 0 -87 -34 -96 -55 -3 -8 -14 -15
-24 -15 -10 0 -23 -5 -30 -12 -9 -9 -12 22 -12 140 l0 151 38 7 c73 13 73 11
72 254 -1 145 -5 224 -13 241 -8 15 -40 38 -87 61 -41 20 -76 41 -78 47 -2 5
-19 15 -39 22 -21 7 -31 15 -26 20 9 9 140 87 196 116 40 21 47 42 45 140 -2
74 1 95 19 129 51 95 124 101 304 23 36 -16 76 -29 88 -29 20 0 100 35 111 49
7 8 36 24 133 73 45 22 93 49 107 58 14 10 60 36 103 59 43 23 93 51 110 62
18 10 59 33 92 49 33 17 83 44 110 60 28 17 77 44 110 62 33 17 83 45 110 62
28 17 77 45 110 61 33 16 77 39 97 52 69 42 148 83 162 83 7 0 19 7 26 15 7 8
24 21 39 28 72 37 190 103 221 123 19 13 40 24 47 24 7 0 13 4 13 9 0 5 12 12
28 16 15 3 45 19 67 35 22 16 43 29 48 30 4 0 24 -11 45 -24z m197 -1357 c152
-19 259 -41 375 -79 30 -10 82 -25 115 -35 120 -34 160 -49 184 -66 13 -11 27
-16 31 -14 5 3 26 -2 47 -11 21 -9 52 -23 68 -29 17 -7 51 -22 76 -34 25 -12
50 -21 54 -21 4 0 19 -8 33 -19 15 -10 44 -24 66 -32 23 -8 42 -23 47 -37 13
-34 11 -539 -1 -563 -9 -15 -15 -17 -29 -9 -11 5 -59 14 -107 20 -49 6 -107
15 -129 20 -22 5 -65 10 -95 10 -30 0 -73 7 -95 15 -22 8 -74 14 -116 15 -41
0 -79 4 -85 10 -8 8 -149 27 -214 28 -14 0 -56 5 -95 11 -111 17 -731 13 -925
-5 -91 -9 -175 -15 -188 -15 -13 0 -39 -6 -59 -14 -19 -8 -63 -15 -97 -15 -33
0 -79 -5 -101 -11 -22 -6 -83 -15 -135 -20 -52 -5 -102 -12 -110 -15 -8 -3
-44 -10 -80 -16 -36 -5 -79 -12 -96 -15 l-32 -5 -7 101 c-4 56 -4 189 0 296 8
215 7 212 78 235 21 6 41 18 44 26 3 8 13 14 23 14 10 0 48 14 85 30 37 17 74
30 83 30 10 0 26 7 36 15 11 8 27 15 35 15 9 1 34 9 56 20 22 11 46 19 53 20
7 0 20 4 30 9 29 16 266 81 293 81 14 0 31 6 37 12 7 7 41 16 75 20 34 3 89
12 122 18 149 28 461 32 650 9z m30 -999 c22 -5 110 -12 195 -15 85 -3 175
-10 200 -15 25 -5 74 -11 110 -14 131 -12 316 -38 366 -52 28 -8 66 -14 85
-14 19 0 52 -11 74 -23 l40 -23 7 -619 c4 -341 12 -723 17 -850 6 -126 11
-279 11 -340 1 -60 5 -130 11 -155 5 -25 11 -115 14 -200 3 -85 10 -178 16
-207 5 -28 14 -121 19 -205 5 -84 15 -207 21 -273 6 -66 12 -184 13 -262 1
-133 -1 -145 -24 -190 -14 -26 -33 -54 -42 -61 -10 -7 -18 -19 -18 -25 0 -7
-10 -20 -23 -30 -70 -55 -86 -66 -122 -89 -22 -14 -89 -41 -150 -62 -60 -20
-118 -41 -127 -46 -10 -6 -30 -10 -44 -10 -14 0 -54 -7 -88 -16 -61 -16 -114
-24 -301 -44 -55 -5 -131 -15 -170 -21 -96 -16 -550 -21 -655 -8 -47 6 -139
14 -205 19 -131 9 -362 35 -410 46 -16 4 -37 8 -45 9 -106 13 -139 21 -158 36
-13 10 -29 16 -35 13 -7 -2 -41 9 -75 26 -34 16 -66 30 -71 30 -5 0 -27 15
-49 32 -21 18 -51 42 -66 54 -41 32 -126 162 -126 193 0 15 -5 32 -12 39 -8 8
-11 83 -9 266 1 160 -2 262 -8 274 -6 11 -39 34 -73 53 -35 18 -72 37 -83 43
-11 6 -50 32 -86 59 -37 26 -71 47 -76 47 -6 0 -35 21 -66 48 -30 26 -77 63
-103 82 -61 45 -236 221 -293 296 -48 62 -111 181 -111 211 0 10 -6 30 -14 45
-26 49 -49 318 -42 488 15 375 22 462 39 475 10 7 17 26 17 42 0 17 9 38 20
48 11 10 20 26 20 37 0 10 3 18 8 18 4 0 23 15 42 33 33 32 114 77 137 77 6 0
16 7 23 15 7 8 28 17 49 21 20 4 41 10 46 14 17 14 182 29 425 40 129 6 237
13 240 16 6 7 9 105 10 316 l0 156 43 20 c23 11 65 22 92 25 28 2 70 9 95 15
103 26 357 54 640 73 91 5 179 14 195 19 42 12 591 12 640 0z"/>
<path d="M5157 9782 c-49 -54 -19 -164 32 -118 9 8 28 17 43 21 35 9 50 28 46
57 -5 39 -95 69 -121 40z"/>
<path d="M5150 9534 c-44 -18 -90 -82 -90 -124 0 -31 29 -83 60 -107 31 -24
94 -26 138 -4 51 26 62 46 63 110 2 62 -17 93 -71 121 -46 23 -54 24 -100 4z"/>
<path d="M6945 8215 c-34 -10 -110 -14 -240 -15 -104 0 -208 -5 -230 -10 -22
-6 -90 -15 -151 -20 -62 -5 -124 -14 -138 -20 -15 -5 -42 -10 -60 -10 -21 0
-40 -8 -52 -21 -17 -19 -20 -44 -25 -233 -4 -116 -7 -293 -8 -394 -1 -101 -5
-213 -11 -250 -5 -37 -12 -224 -14 -417 -3 -229 -9 -367 -17 -400 -8 -33 -12
-147 -13 -340 -1 -215 -4 -296 -14 -312 -9 -16 -14 -95 -18 -260 -2 -131 -9
-264 -15 -295 -11 -65 8 -164 36 -184 8 -6 15 -16 15 -22 0 -20 71 -72 99 -72
16 0 34 -7 41 -15 9 -10 32 -15 75 -15 48 0 64 -4 69 -16 4 -12 19 -15 63 -13
39 1 68 -3 88 -14 18 -10 53 -17 90 -17 33 0 91 -7 130 -15 38 -8 119 -15 180
-15 60 0 141 -7 180 -15 101 -22 550 -21 591 0 21 11 63 15 156 15 70 0 139 5
154 10 14 6 69 15 122 20 53 6 99 16 103 22 5 7 27 11 55 9 37 -2 51 2 67 20
15 16 27 20 53 16 21 -4 39 -1 47 7 7 7 24 17 37 21 29 8 80 54 80 70 0 6 11
22 25 35 13 12 34 52 46 87 18 56 20 79 15 181 -3 64 -9 144 -15 177 -5 33
-10 122 -10 198 -1 112 -5 149 -22 200 -15 45 -19 74 -15 107 4 25 6 110 6
190 -1 111 -4 147 -15 156 -11 8 -14 68 -18 300 -2 159 -9 339 -15 399 -6 61
-13 319 -15 574 -6 554 4 513 -128 522 -46 3 -113 11 -149 17 -36 7 -96 12
-135 12 -38 0 -113 6 -165 14 -55 8 -181 14 -299 15 -149 0 -208 4 -219 13
-23 19 -331 21 -397 3z m388 -772 c3 -5 8 -240 11 -523 6 -499 9 -663 22
-1275 l6 -290 36 -37 c34 -36 38 -38 101 -37 76 1 102 16 139 82 23 41 24 45
23 307 -2 355 -10 594 -21 655 -11 53 -19 1069 -9 1079 5 6 128 10 196 7 l31
-1 -5 -946 c-4 -834 -3 -947 10 -962 9 -9 18 -29 22 -43 4 -15 21 -40 38 -57
30 -29 35 -30 92 -23 33 3 69 13 80 21 30 22 57 83 57 126 -1 22 -1 84 -1 139
-1 55 -1 306 -2 557 0 358 -3 466 -13 496 -14 40 -26 445 -16 590 l4 72 82 0
81 0 7 -127 c4 -69 11 -147 16 -173 5 -25 9 -159 9 -297 0 -169 5 -285 15
-355 9 -61 17 -207 19 -358 3 -140 10 -307 16 -372 7 -64 11 -203 9 -310 l-3
-195 -27 -36 c-16 -19 -28 -40 -28 -46 0 -6 -6 -11 -13 -11 -8 0 -22 -9 -32
-20 -32 -35 -134 -80 -218 -96 -45 -9 -152 -20 -237 -24 -85 -4 -168 -13 -183
-19 -38 -15 -869 -15 -883 -1 -6 6 -60 15 -120 20 -191 16 -374 64 -460 122
-54 36 -67 54 -61 78 3 12 -1 24 -11 29 -15 8 -16 33 -15 198 1 105 6 210 13
238 7 28 13 138 15 245 2 110 9 217 16 245 7 29 13 133 15 245 1 107 8 240 14
295 6 55 15 240 18 410 l7 310 93 1 c87 1 92 0 93 -20 3 -112 -4 -370 -12
-410 -5 -28 -11 -269 -13 -535 -3 -400 -5 -485 -17 -492 -21 -13 -26 -370 -6
-419 21 -48 59 -88 94 -96 15 -4 33 -14 39 -22 9 -13 12 -13 17 2 4 9 18 16
33 16 25 0 74 39 74 59 0 5 6 14 14 20 10 8 15 59 20 204 3 105 10 271 15 367
5 96 10 373 10 616 1 242 4 509 8 592 l6 152 94 0 93 0 0 -1005 0 -1005 24
-49 c30 -59 64 -75 142 -69 99 8 113 43 126 303 5 105 7 285 3 400 -3 116 -2
492 1 838 l7 627 88 0 c48 0 90 -3 92 -7z"/>
<path d="M5345 7522 c-16 -2 -38 -10 -49 -18 -11 -8 -30 -14 -42 -14 -12 0
-42 -9 -68 -21 -38 -17 -51 -29 -71 -71 -14 -29 -25 -63 -25 -77 -1 -14 -7
-37 -15 -51 -21 -37 -21 -505 0 -557 8 -19 15 -56 15 -82 0 -54 40 -174 68
-205 11 -11 36 -45 56 -74 21 -30 52 -67 69 -82 18 -16 51 -46 73 -67 23 -22
74 -58 113 -82 39 -23 83 -53 97 -66 15 -14 34 -25 42 -25 8 0 45 -14 81 -31
78 -37 97 -32 95 27 -1 22 5 80 12 129 8 50 19 196 24 325 6 129 15 296 20
370 14 210 13 633 -2 653 -11 14 -42 17 -238 19 -124 2 -238 1 -255 0z"/>
<path d="M3344 10766 c-7 -17 2 -37 94 -211 32 -60 66 -111 74 -113 20 -4 188
182 188 208 0 18 -19 30 -48 30 -8 0 -34 8 -56 18 -48 22 -94 38 -156 57 -25
7 -55 16 -67 20 -16 5 -25 3 -29 -9z"/>
<path d="M3451 5108 c-62 -46 -141 -103 -175 -128 -35 -25 -78 -58 -97 -73
-19 -16 -76 -61 -128 -100 -147 -112 -155 -120 -148 -148 9 -36 106 -157 167
-208 124 -104 278 -109 448 -12 35 20 72 41 83 47 55 31 155 153 182 222 25
63 22 175 -6 229 -42 81 -85 148 -111 176 -15 16 -34 40 -43 53 -8 13 -25 24
-38 24 -12 0 -73 -37 -134 -82z"/>
<path d="M6295 3093 c-20 -36 -56 -96 -80 -133 -72 -110 -70 -140 5 -140 19 0
67 -7 105 -15 116 -24 132 -19 116 41 -6 21 -20 84 -31 139 -33 160 -39 175
-59 175 -13 0 -31 -21 -56 -67z"/>
<path d="M7797 3340 c-63 -12 -73 -28 -59 -102 6 -35 14 -96 17 -137 11 -129
22 -138 128 -105 81 26 137 98 137 178 0 35 -23 101 -44 124 -43 49 -89 60
-179 42z"/>
<path d="M7818 2904 c-31 -16 -32 -21 -18 -113 6 -36 17 -111 26 -166 8 -55
17 -115 20 -132 5 -33 5 -33 64 -33 85 0 142 27 179 87 27 43 31 57 31 125 0
160 -78 249 -217 248 -32 -1 -70 -8 -85 -16z"/>
<path d="M5374 1308 c-14 -22 -11 -288 4 -300 15 -13 102 -4 139 14 42 21 62
58 69 123 9 104 -35 155 -148 169 -42 5 -58 4 -64 -6z"/>
<path d="M9314 1102 c-15 -10 -86 -220 -79 -232 8 -12 162 -13 169 -1 3 4 -4
32 -15 62 -11 30 -29 82 -41 117 -11 34 -21 62 -21 62 -1 0 -7 -4 -13 -8z"/>
</g>
</svg>
