<?xml version="1.0" standalone="no"?>
<!DOCTYPE svg PUBLIC "-//W3C//DTD SVG 20010904//EN"
 "http://www.w3.org/TR/2001/REC-SVG-20010904/DTD/svg10.dtd">
<svg version="1.0" xmlns="http://www.w3.org/2000/svg"
 width="225.000000pt" height="225.000000pt" viewBox="0 0 225.000000 225.000000"
 preserveAspectRatio="xMidYMid meet">

<g transform="translate(0.000000,225.000000) scale(0.100000,-0.100000)"
fill="#000000" stroke="none">
<path d="M0 1125 l0 -1125 1125 0 1125 0 0 1125 0 1125 -1125 0 -1125 0 0
-1125z m360 25 l0 -120 60 0 60 0 0 -40 0 -40 -105 0 -105 0 0 160 0 160 45 0
45 0 0 -120z m668 100 c26 -16 32 -26 32 -56 0 -19 -5 -44 -11 -55 -8 -15 -6
-25 10 -46 23 -28 27 -64 11 -94 -19 -35 -63 -49 -160 -49 l-90 0 0 160 0 160
88 0 c69 0 94 -4 120 -20z m-360 -80 c32 -20 68 -82 57 -100 -3 -5 -31 -14
-63 -21 -78 -17 -92 -32 -22 -25 33 4 61 2 70 -4 13 -9 10 -15 -18 -40 -26
-25 -41 -30 -80 -30 -71 1 -112 42 -112 115 0 49 23 89 62 108 44 22 66 21
106 -3z m593 -3 c29 -18 39 -53 39 -137 l0 -79 -80 1 c-96 0 -130 19 -130 72
0 44 30 71 80 71 21 0 36 3 34 7 -3 5 -25 8 -50 8 -37 0 -44 3 -44 20 0 11 -1
23 -2 28 -2 4 13 13 32 19 37 13 91 9 121 -10z m156 12 c8 -8 17 -8 31 0 26
14 32 6 32 -40 0 -35 -2 -38 -27 -36 l-28 2 -3 -77 -3 -78 -49 0 -50 0 0 113
c0 63 3 117 7 120 10 11 78 8 90 -4z m227 5 c11 -4 16 -19 16 -46 0 -35 -2
-39 -20 -33 -24 8 -70 -18 -70 -39 0 -21 28 -39 60 -38 28 1 30 -2 30 -39 l0
-39 -51 0 c-45 0 -55 4 -85 34 -29 29 -34 41 -34 79 0 52 27 92 74 113 34 15
57 17 80 8z m216 -23 c37 -27 51 -60 46 -111 -6 -63 -48 -100 -115 -100 -59 0
-94 24 -111 76 -37 113 85 204 180 135z"/>
<path d="M910 1180 c0 -23 5 -30 19 -30 24 0 45 25 37 45 -3 8 -17 15 -31 15
-21 0 -25 -5 -25 -30z"/>
<path d="M910 1050 c0 -35 3 -40 23 -40 49 0 65 54 21 70 -40 16 -44 13 -44
-30z"/>
<path d="M587 1113 c-14 -14 -6 -19 23 -15 16 2 27 8 24 13 -6 11 -38 12 -47
2z"/>
<path d="M1183 1035 c-7 -20 2 -29 21 -22 9 4 13 13 10 22 -8 19 -23 19 -31 0z"/>
<path d="M1770 1096 c-6 -8 -10 -25 -8 -38 2 -17 10 -23 28 -23 18 0 26 6 28
23 3 22 -13 52 -28 52 -4 0 -13 -7 -20 -14z"/>
</g>
</svg>
