<?xml version="1.0" standalone="no"?>
<!DOCTYPE svg PUBLIC "-//W3C//DTD SVG 20010904//EN"
 "http://www.w3.org/TR/2001/REC-SVG-20010904/DTD/svg10.dtd">
<svg version="1.0" xmlns="http://www.w3.org/2000/svg"
 width="225.000000pt" height="225.000000pt" viewBox="0 0 225.000000 225.000000"
 preserveAspectRatio="xMidYMid meet">

<g transform="translate(0.000000,225.000000) scale(0.100000,-0.100000)"
fill="#000000" stroke="none">
<path d="M948 2224 c-239 -37 -454 -150 -629 -331 -132 -136 -226 -303 -276
-490 -24 -89 -27 -115 -27 -278 0 -163 3 -189 27 -278 50 -186 142 -349 275
-489 247 -259 602 -385 948 -337 454 63 817 387 935 834 21 79 24 113 24 270
0 157 -3 191 -24 270 -148 564 -683 918 -1253 829z m369 -29 c222 -42 414
-144 574 -304 381 -381 424 -988 100 -1418 -209 -277 -521 -433 -866 -433
-181 0 -335 35 -485 110 -304 151 -511 421 -586 763 -25 113 -22 328 6 447 51
217 165 420 309 552 159 146 346 242 547 282 95 19 303 19 401 1z"/>
<path d="M1038 2135 c-8 -19 -8 -28 2 -40 12 -14 11 -18 -1 -27 -11 -7 -11
-11 -1 -15 8 -3 12 -28 12 -77 0 -72 0 -72 -27 -71 -21 0 -28 -5 -27 -18 2
-14 -1 -15 -12 -6 -11 9 -14 42 -14 140 0 103 -3 129 -14 129 -20 0 -42 -30
-29 -38 6 -4 13 -54 17 -112 5 -79 11 -111 25 -130 23 -32 51 -37 68 -14 7 10
13 12 13 6 0 -7 8 -12 18 -12 15 0 17 10 14 105 -3 71 0 105 7 105 6 0 11 5
11 10 0 6 -8 10 -17 10 -14 0 -13 4 7 25 19 20 21 27 10 40 -19 23 -49 18 -62
-10z"/>
<path d="M1326 2124 c-4 -9 -1 -23 6 -32 11 -13 10 -15 -10 -9 -20 5 -23 2
-19 -14 6 -24 2 -24 -23 1 -24 24 -48 25 -78 4 -20 -14 -22 -14 -22 2 0 11 -5
14 -16 10 -9 -3 -19 -6 -22 -6 -4 0 -5 -49 -4 -110 3 -75 0 -110 -7 -110 -20
0 -12 -20 12 -29 26 -10 43 -3 28 12 -6 6 -11 46 -11 88 0 74 1 78 31 103 32
28 74 34 81 14 6 -17 -1 -38 -13 -38 -4 0 -6 7 -3 15 4 11 0 15 -16 15 -16 0
-21 -5 -18 -22 4 -32 41 -35 63 -6 15 20 16 20 11 3 -4 -11 -16 -49 -26 -85
-10 -36 -21 -73 -25 -82 -6 -15 -2 -18 24 -18 17 0 31 5 31 10 0 6 -5 10 -11
10 -15 0 -6 41 28 129 20 51 30 67 36 56 4 -8 15 -15 22 -15 10 0 3 -16 -21
-50 -39 -54 -44 -104 -11 -124 31 -20 68 12 109 94 33 68 35 76 20 88 -24 19
-33 15 -26 -13 4 -15 -3 -43 -19 -79 -28 -61 -55 -82 -81 -63 -15 11 -14 16 9
57 49 87 58 108 51 125 -4 12 -13 15 -30 11 -18 -4 -24 -2 -22 9 1 8 8 21 14
27 7 7 12 18 12 25 0 19 -47 16 -54 -3z"/>
<path d="M829 2100 c-23 -19 -23 -19 -3 -20 20 0 44 17 44 32 0 14 -17 9 -41
-12z"/>
<path d="M818 2049 c-10 -5 -21 -28 -24 -50 l-7 -39 -23 25 c-13 14 -32 25
-43 25 -24 0 -111 -95 -111 -121 0 -26 15 -24 27 3 8 19 11 10 17 -49 5 -51 3
-77 -6 -92 -7 -11 -9 -24 -4 -28 10 -10 99 89 128 143 l22 42 18 -24 c11 -13
35 -26 55 -30 30 -6 39 -3 54 15 24 29 14 53 -20 49 -28 -3 -44 -38 -17 -38 9
0 16 5 16 10 0 6 4 10 10 10 5 0 7 -7 4 -15 -9 -23 -48 -18 -78 10 -14 13 -26
28 -26 34 0 5 -3 18 -7 28 -6 17 -6 17 14 1 44 -39 113 -11 113 45 0 45 -67
73 -112 46z m66 -15 c14 -5 24 -64 12 -64 -2 0 -11 -3 -19 -6 -12 -4 -14 0
-10 14 6 25 -11 36 -37 22 -24 -13 -26 -3 -3 22 17 19 31 22 57 12z m-116 -86
c11 -24 10 -32 -7 -65 -10 -21 -33 -51 -49 -66 l-30 -29 -7 81 c-8 94 0 114
49 109 22 -2 35 -11 44 -30z"/>
<path d="M1504 1983 c-9 -36 -81 -143 -96 -143 -12 0 22 -29 35 -30 4 0 7 7 7
16 0 9 12 36 28 60 21 35 33 44 55 44 32 0 35 -18 12 -75 -14 -31 -18 -35 -31
-24 -13 10 -17 10 -24 -1 -10 -17 -2 -40 14 -40 16 0 49 38 64 73 14 33 32 27
32 -11 0 -30 -44 -102 -62 -102 -7 0 -4 6 7 13 20 16 5 33 -20 23 -19 -7 -19
-30 0 -46 13 -11 21 -7 49 23 18 20 36 48 39 63 6 32 -7 74 -23 74 -5 0 -10 7
-10 15 0 8 -11 22 -25 31 -19 13 -23 20 -15 30 9 9 6 15 -9 24 -18 9 -21 7
-27 -17z"/>
<path d="M826 1727 c-83 -47 -104 -123 -53 -190 32 -42 87 -70 121 -61 31 7
77 54 54 54 -9 0 -21 -7 -28 -15 -29 -35 -120 0 -144 56 -18 42 -9 75 31 115
28 28 41 34 76 33 23 0 36 -3 30 -6 -7 -2 -13 -15 -13 -29 0 -17 7 -25 24 -30
49 -12 63 27 24 63 -36 33 -77 36 -122 10z m124 -43 c0 -8 -19 -13 -24 -6 -3
5 1 9 9 9 8 0 15 -2 15 -3z"/>
<path d="M1192 1734 c-24 -17 -28 -48 -13 -102 8 -27 7 -34 -10 -42 -24 -13
-25 -34 -1 -28 15 4 17 -1 14 -43 -3 -34 -9 -49 -20 -52 -10 -3 1 -5 22 -6 31
-1 37 2 28 11 -18 18 -15 105 4 112 9 3 20 4 25 1 5 -4 6 1 3 10 -4 10 -14 15
-25 12 -17 -5 -19 1 -19 44 0 57 18 72 82 67 47 -3 71 -29 50 -50 -11 -11 -12
-10 -7 5 6 13 2 17 -14 17 -27 0 -27 -25 -1 -43 19 -13 19 -16 5 -43 -26 -51
-18 -87 26 -109 57 -30 135 -9 127 34 -5 26 -43 20 -42 -6 0 -19 -5 -23 -33
-23 -35 0 -73 29 -73 54 0 50 57 106 108 106 17 0 22 -6 22 -25 0 -27 -49 -60
-78 -52 -15 4 -15 5 1 6 19 1 23 26 6 37 -18 10 -42 -21 -34 -45 5 -16 15 -21
41 -21 47 0 97 47 92 87 -4 38 -48 54 -88 31 -28 -16 -28 -16 -34 14 -10 50
-114 77 -164 42z"/>
<path d="M1425 1733 c-21 -12 -25 -18 -14 -20 21 -5 69 14 69 27 0 14 -20 12
-55 -7z"/>
<path d="M1034 1661 c-18 -11 -34 -25 -36 -33 -13 -38 24 -70 50 -44 17 16 8
36 -16 36 -24 0 -2 19 36 29 52 15 75 -19 50 -74 -9 -21 -18 -25 -52 -25 -75
0 -116 -57 -61 -82 19 -8 31 -8 51 1 18 8 30 8 39 1 16 -14 25 -2 25 34 0 17
10 55 22 84 l23 54 -24 19 c-30 24 -68 24 -107 0z m66 -129 c0 -15 -33 -39
-62 -46 -23 -5 -28 -3 -28 13 0 14 11 22 38 29 49 13 52 13 52 4z"/>
<path d="M847 1341 c-93 -49 -141 -102 -167 -181 -14 -45 -21 -89 -20 -129 2
-58 2 -98 -1 -158 -1 -16 2 -48 6 -72 7 -39 5 -46 -16 -62 -13 -10 -18 -19
-11 -19 8 0 27 13 43 29 26 27 35 57 30 99 -3 22 7 13 33 -33 15 -24 34 -49
44 -55 59 -34 74 -74 81 -220 1 -21 53 -50 89 -50 45 0 95 45 90 82 -3 18 0
28 8 28 6 0 22 9 35 19 23 19 24 20 7 53 -9 18 -18 48 -21 66 l-4 32 21 -19
c12 -11 38 -27 58 -36 33 -13 36 -18 29 -38 -10 -27 6 -73 36 -99 11 -11 44
-20 79 -24 51 -5 63 -3 87 16 27 21 27 23 11 41 -13 14 -15 31 -12 71 3 29 0
68 -6 88 -20 56 -4 89 25 54 7 -8 21 -13 31 -11 32 9 52 -35 44 -99 -7 -61
-18 -87 -49 -121 -18 -20 -19 -26 -7 -48 7 -14 19 -25 27 -25 18 0 70 73 106
150 26 55 30 77 31 150 1 63 -3 93 -16 117 -13 22 -18 54 -18 105 0 64 -4 79
-27 113 -16 22 -39 62 -53 90 -30 59 -62 73 -175 74 -51 1 -81 7 -110 22 -32
17 -63 22 -160 26 -119 5 -120 5 -178 -26z m248 -1 c82 -12 96 -22 70 -50 -10
-11 -16 -22 -13 -25 3 -3 13 4 23 15 10 11 25 20 33 20 12 0 11 -4 -4 -22
l-19 -22 25 17 c18 12 46 17 105 17 95 0 116 -11 144 -76 12 -25 32 -59 46
-76 23 -27 25 -36 19 -87 -5 -47 -2 -67 17 -112 44 -101 26 -233 -48 -342 -46
-67 -43 -64 -53 -47 -6 10 -3 21 9 35 32 35 54 110 49 165 -4 41 -12 57 -47
95 -23 25 -39 50 -36 55 3 5 -8 8 -25 8 -38 -1 -38 -8 0 -30 17 -9 30 -22 30
-29 0 -8 -4 -8 -12 -1 -7 5 -39 18 -70 27 -86 24 -132 88 -109 149 6 15 11 39
11 54 -1 20 -8 8 -29 -42 -15 -39 -32 -71 -38 -73 -5 -2 -15 8 -23 22 -7 14
-26 33 -42 43 l-29 18 25 12 c17 8 29 25 38 59 l13 47 50 -1 c46 -2 48 -1 23
10 -33 13 -34 17 -7 51 23 30 56 33 99 11 36 -18 39 -11 8 16 -36 29 -85 25
-119 -12 -16 -17 -29 -35 -29 -40 0 -5 -13 -9 -30 -9 -29 0 -70 -32 -70 -55 0
-7 -9 -20 -20 -30 -32 -29 -26 -61 18 -85 22 -12 47 -35 56 -51 18 -30 44 -37
64 -17 9 9 12 9 12 0 0 -6 15 -28 33 -48 l32 -37 -33 6 c-49 10 -121 -24 -122
-56 0 -5 12 1 26 12 15 12 35 21 46 21 16 0 15 -3 -9 -25 l-28 -25 37 15 c51
21 65 19 43 -5 -22 -24 -14 -36 13 -19 16 10 24 9 45 -7 32 -24 39 -51 27 -95
-6 -19 -10 -49 -10 -67 0 -29 -2 -33 -21 -27 -15 5 -19 4 -15 -4 4 -6 0 -11
-8 -11 -9 0 -16 7 -16 15 0 8 -9 15 -20 15 -22 0 -37 38 -26 66 6 15 8 15 26
-1 18 -16 20 -16 20 -2 0 19 -30 40 -82 56 -20 7 -48 23 -63 37 -26 24 -27 29
-21 87 3 35 1 69 -4 77 -7 11 -10 6 -11 -20 -1 -72 -18 -77 -18 -5 -1 50 -4
66 -12 58 -6 -6 -9 -36 -7 -72 1 -34 0 -61 -4 -61 -4 0 -23 25 -43 55 -21 30
-41 58 -46 61 -16 10 -9 -11 17 -49 14 -21 24 -40 22 -42 -2 -3 -32 19 -66 47
-52 42 -63 57 -68 89 -9 54 -23 59 -17 7 8 -58 8 -59 88 -123 l70 -55 1 -84
c0 -65 5 -92 22 -124 22 -42 21 -75 -2 -66 -7 3 -19 -2 -26 -11 -10 -12 -16
-13 -26 -4 -11 9 -17 9 -28 0 -20 -17 -33 5 -39 64 -9 98 -25 135 -75 181 -27
23 -57 61 -67 83 -25 56 -39 53 -56 -13 -6 -23 -7 -19 -4 19 6 65 6 67 -1 152
-8 98 13 160 80 231 92 98 160 116 331 92z m9 -251 c-28 -31 -33 -22 -10 24
18 37 21 39 24 19 2 -13 -4 -32 -14 -43z m-55 -315 c6 -14 11 -37 11 -53 0
-15 7 -36 15 -47 19 -25 19 -35 0 -28 -8 4 -17 -1 -21 -10 -5 -13 -34 -24 -34
-12 0 2 -4 27 -10 56 -18 97 8 161 39 94z m290 22 c21 -25 30 -74 21 -107 -7
-22 -5 -41 4 -64 13 -31 13 -32 -11 -27 -25 5 -25 7 -18 56 12 80 10 114 -10
136 -10 11 -13 20 -8 20 6 0 16 -6 22 -14z m1 -216 c0 -5 -5 -10 -11 -10 -5 0
-7 5 -4 10 3 6 8 10 11 10 2 0 4 -4 4 -10z"/>
<path d="M1343 1005 c-16 -12 -22 -12 -26 -2 -4 7 -6 6 -6 -4 -1 -11 12 -20
39 -27 39 -10 40 -9 34 11 -10 34 -18 38 -41 22z"/>
<path d="M417 672 c-22 -24 -21 -48 3 -92 l18 -35 -31 -15 c-42 -20 -46 -63
-6 -68 16 -2 29 3 32 12 7 17 -17 41 -33 31 -14 -8 -13 -23 3 -28 7 -2 6 -3
-3 -3 -27 2 -17 39 14 49 32 11 46 -1 46 -43 0 -30 -17 -50 -41 -50 -24 0 -69
38 -80 68 -8 22 -6 29 21 53 34 32 36 41 14 59 -12 11 -18 11 -29 -1 -9 -9
-11 -19 -5 -28 7 -13 11 -13 27 -1 17 14 17 14 0 -6 -9 -12 -36 -26 -58 -33
l-40 -12 42 -47 c45 -49 92 -82 120 -82 48 0 74 57 55 121 -7 24 -5 26 48 39
31 7 56 17 56 22 0 4 -4 8 -9 8 -5 0 -19 16 -31 35 -37 59 -102 82 -133 47z
m90 -34 c36 -34 29 -64 -19 -81 -14 -5 -22 3 -36 31 -10 20 -17 45 -14 55 5
24 41 22 69 -5z"/>
<path d="M1800 634 c-32 -17 -60 -51 -60 -74 0 -22 53 -95 84 -115 14 -9 33
-14 44 -11 21 7 99 76 86 76 -5 0 -18 14 -29 30 -24 36 -70 41 -106 12 -27
-23 -21 -53 10 -45 26 7 26 12 4 30 -16 13 -16 13 5 3 12 -6 22 -15 22 -21 0
-5 -10 -14 -22 -19 -16 -6 -18 -9 -7 -9 25 -1 42 25 34 51 -7 22 -6 22 20 -4
32 -30 29 -52 -11 -70 -24 -11 -29 -9 -65 30 -21 22 -39 50 -39 61 0 25 46 61
78 61 25 0 25 1 6 15 -22 17 -22 17 -54 -1z"/>
<path d="M580 536 c0 -8 -7 -17 -16 -20 -9 -3 -14 -11 -12 -18 2 -6 -11 -37
-29 -67 -38 -63 -40 -81 -15 -104 24 -22 55 -21 75 1 20 22 22 43 5 60 -14 14
-48 16 -48 4 0 -5 10 -8 23 -8 27 1 37 -38 12 -48 -19 -7 -55 10 -55 25 0 13
49 97 60 104 5 3 16 2 25 -1 15 -6 14 -8 -1 -25 -14 -15 -15 -22 -6 -31 9 -9
15 -9 24 0 9 9 8 12 -7 12 -17 0 -16 3 8 23 l29 23 -26 13 c-27 15 -34 35 -16
46 17 10 11 25 -10 25 -11 0 -20 -6 -20 -14z"/>
<path d="M1658 520 c-7 -11 -21 -20 -30 -20 -24 0 -24 0 17 -62 20 -29 41 -65
48 -80 12 -28 31 -36 42 -19 3 5 1 12 -4 15 -5 3 -23 31 -40 61 -24 43 -29 60
-22 74 14 25 36 32 56 17 23 -17 15 -50 -13 -54 -23 -3 -32 21 -12 33 6 3 7
-1 4 -9 -4 -11 0 -16 11 -16 10 0 15 6 13 18 -5 23 -42 22 -46 -2 -5 -22 23
-47 43 -40 8 3 12 -1 12 -12 -1 -9 3 -18 8 -20 17 -7 15 99 -2 119 -22 23 -70
22 -85 -3z"/>
<path d="M1567 474 c-3 -4 -2 -15 3 -25 6 -10 14 -29 20 -43 7 -20 6 -24 -5
-20 -8 3 -25 -5 -38 -18 l-24 -24 -12 31 c-6 17 -11 39 -11 48 0 20 -4 21 -32
6 -13 -7 -17 -14 -10 -18 6 -3 24 -37 41 -73 35 -78 62 -93 109 -62 26 18 31
20 51 23 5 0 -6 34 -25 75 -19 41 -34 82 -34 90 0 16 -21 22 -33 10z m42 -118
c14 -17 5 -43 -20 -56 -26 -14 -37 -12 -48 8 -21 40 40 82 68 48z"/>
<path d="M1555 351 c-9 -16 16 -25 27 -10 8 12 9 11 5 -1 -2 -8 -14 -15 -26
-14 -13 0 -18 -3 -12 -9 15 -15 46 -3 49 21 3 16 -2 22 -17 22 -11 0 -22 -4
-26 -9z"/>
<path d="M646 387 c-16 -39 -35 -79 -43 -88 -12 -14 -12 -17 2 -23 27 -10 35
-7 35 12 0 9 11 41 25 70 22 48 28 53 52 50 24 -3 28 -8 28 -33 0 -32 -31 -48
-46 -24 -9 16 9 42 23 33 6 -4 5 -10 -3 -15 -7 -4 -10 -11 -6 -15 11 -12 30
13 24 30 -8 20 -31 20 -48 0 -10 -13 -10 -20 0 -36 9 -15 9 -23 0 -34 -6 -8
-8 -18 -4 -22 4 -4 10 -1 12 6 3 7 20 19 39 27 60 25 59 99 -2 111 -19 3 -37
10 -40 15 -11 18 -20 7 -48 -64z"/>
<path d="M1113 425 c10 -25 29 -225 23 -240 -4 -11 3 -15 30 -15 92 0 140 57
113 133 -18 54 -56 76 -99 60 l-30 -11 0 44 c0 38 -3 44 -21 44 -14 0 -19 -5
-16 -15z m122 -100 c16 -15 25 -36 25 -55 0 -60 -82 -100 -92 -45 -5 22 -2 25
22 25 15 0 33 7 40 15 15 18 10 47 -10 53 -13 5 -13 3 -1 -11 18 -22 -3 -49
-33 -45 -28 4 -35 57 -10 75 25 18 31 17 59 -12z"/>
<path d="M1180 315 c-15 -18 -6 -45 14 -45 17 0 29 27 15 35 -5 4 -7 11 -4 16
10 15 -12 10 -25 -6z m14 -21 c3 -8 2 -12 -4 -9 -6 3 -10 10 -10 16 0 14 7 11
14 -7z"/>
<path d="M1339 399 c-50 -19 -62 -84 -27 -155 25 -53 109 -52 144 1 12 18 12
29 0 74 -7 29 -20 59 -27 66 -20 19 -60 25 -90 14z m63 -31 c23 -18 40 -86 28
-109 -12 -22 -43 -33 -70 -24 -24 7 -37 51 -23 74 13 20 55 21 60 1 4 -12 3
-13 -5 -1 -13 19 -44 6 -40 -16 4 -23 41 -28 57 -9 9 11 10 20 1 35 -12 23
-40 27 -71 11 -24 -14 -27 11 -3 34 19 19 44 20 66 4z m-2 -84 c0 -2 -9 -4
-20 -4 -11 0 -20 4 -20 9 0 5 9 7 20 4 11 -3 20 -7 20 -9z"/>
<path d="M816 381 c-15 -17 -14 -18 29 -18 63 0 70 -10 55 -73 -15 -63 -44
-83 -85 -56 -14 9 -25 22 -25 29 0 18 21 43 42 50 23 8 53 -16 45 -37 -8 -21
-39 -18 -44 4 -4 12 -3 13 5 1 5 -7 15 -10 21 -6 17 10 -6 36 -25 28 -19 -7
-18 -42 2 -50 38 -14 67 32 39 61 -50 50 -138 -22 -100 -81 20 -30 53 -43 82
-32 15 5 23 4 27 -7 3 -8 13 -14 21 -14 9 0 13 4 10 10 -3 5 0 36 6 69 12 56
13 58 28 40 9 -11 38 -27 66 -37 57 -21 70 -47 31 -62 -36 -13 -76 6 -76 36 0
27 -15 40 -26 22 -4 -6 -2 -14 4 -16 9 -3 8 -10 -3 -25 -14 -20 -13 -22 16
-34 70 -29 139 -8 139 44 0 26 -14 37 -74 60 -56 20 -67 37 -36 53 16 9 28 8
52 -5 29 -14 33 -14 50 1 22 21 23 43 3 51 -22 8 -30 -4 -15 -22 11 -14 10
-14 -14 -5 -39 14 -78 12 -104 -6 -12 -8 -22 -10 -22 -5 0 15 -39 38 -76 44
-23 4 -36 1 -48 -12z"/>
<path d="M532 370 c7 -21 48 -26 48 -6 0 9 -7 16 -16 16 -9 0 -12 -5 -8 -12 5
-8 0 -7 -11 2 -16 13 -18 13 -13 0z"/>
</g>
</svg>
