<?xml version="1.0" standalone="no"?>
<!DOCTYPE svg PUBLIC "-//W3C//DTD SVG 20010904//EN"
 "http://www.w3.org/TR/2001/REC-SVG-20010904/DTD/svg10.dtd">
<svg version="1.0" xmlns="http://www.w3.org/2000/svg"
 width="1540.000000pt" height="1477.000000pt" viewBox="0 0 1540.000000 1477.000000"
 preserveAspectRatio="xMidYMid meet">

<g transform="translate(0.000000,1477.000000) scale(0.100000,-0.100000)"
fill="#000000" stroke="none">
<path d="M0 7385 l0 -7385 7700 0 7700 0 0 7385 0 7385 -7700 0 -7700 0 0
-7385z m13945 6881 c176 -32 309 -101 427 -223 114 -118 182 -245 212 -398 15
-72 16 -362 14 -3050 l-3 -2970 -285 0 -285 0 -5 2965 c-5 2765 -6 2967 -22
2996 -24 44 -81 91 -125 103 -48 14 -12249 15 -12307 2 -51 -12 -105 -57 -133
-112 l-22 -44 -1 -2958 0 -2957 -287 2 -288 3 -3 2930 c-2 1982 1 2961 8 3025
19 176 86 323 203 448 121 128 264 205 440 237 113 21 12348 21 12462 1z
m-7775 -3636 c638 -104 1059 -381 1304 -860 162 -316 209 -765 125 -1180 -86
-419 -396 -884 -860 -1286 -264 -229 -468 -380 -924 -686 -743 -496 -1046
-733 -1328 -1038 -152 -164 -233 -292 -296 -465 -33 -93 -64 -245 -52 -257 4
-5 814 -9 1801 -10 l1795 -3 0 -165 0 -165 -2012 -3 -2013 -2 0 22 c0 13 5 64
10 113 55 487 287 928 709 1345 251 248 552 479 1091 840 304 203 697 477 810
564 547 423 844 825 942 1276 25 116 36 415 20 536 -76 558 -549 1019 -1162
1133 -277 51 -624 29 -875 -55 -535 -178 -894 -629 -1020 -1279 -18 -95 -45
-356 -45 -437 l0 -58 -165 0 -165 0 0 63 c0 80 34 371 59 512 75 412 218 752
419 998 267 326 676 522 1182 567 158 14 507 3 650 -20z m4883 -79 c16 -1 17
-150 15 -3018 l-3 -3018 -165 0 -165 0 -5 2688 -5 2688 -35 -36 c-69 -72 -276
-239 -384 -311 -94 -61 -361 -204 -382 -204 -3 0 -20 -7 -37 -15 -181 -84
-640 -196 -765 -186 -10 1 -12 33 -10 142 l3 142 110 22 c228 48 393 104 588
201 383 192 703 487 917 846 19 32 41 59 49 60 13 3 229 2 274 -1z m-9643
-6510 c0 -2704 1 -2781 19 -2823 25 -59 92 -115 145 -123 22 -3 2802 -4 6176
-3 l6135 3 42 27 c24 16 52 46 65 70 l23 43 5 2790 5 2790 285 0 285 0 0
-2825 c0 -2708 -1 -2828 -18 -2890 -47 -165 -156 -332 -278 -425 -86 -64 -226
-130 -323 -149 -71 -15 -645 -16 -6261 -16 -5548 0 -6191 2 -6252 15 -174 40
-276 96 -398 219 -49 50 -105 117 -124 149 -50 84 -89 205 -101 305 -11 98
-14 5604 -3 5615 3 4 134 7 290 7 l283 0 0 -2779z"/>
</g>
</svg>
